<?xml version="1.0" encoding="utf-8"?>
<!-- Generator: Adobe Illustrator 21.1.0, SVG Export Plug-In . SVG Version: 6.00 Build 0)  -->
<svg version="1.1" id="Layer_1" xmlns="http://www.w3.org/2000/svg" xmlns:xlink="http://www.w3.org/1999/xlink" x="0px" y="0px" width="50px" height="50px"
	 viewBox="0 0 50 50" style="enable-background:new 0 0 50 50;" xml:space="preserve">
<style type="text/css">
	.st0{fill:#FFFFFF;}
</style>
<circle cx="25" cy="25" r="25"/>
<g id="Page-1">
	<g id="Icons-Communication" transform="translate(-85.000000, -126.000000)">
		<g id="phone" transform="translate(85.000000, 126.000000)">
			<path id="Shape" class="st0" d="M18.1,23.4c1.7,3.6,4.9,6.5,8.5,8.5l2.9-2.9c0.4-0.4,0.9-0.6,1.3-0.3c1.4,0.6,2.9,0.7,4.6,0.7
				c0.7,0,1.3,0.6,1.3,1.3v4.3c0,0.7-0.6,1.3-1.3,1.3c-12.1,0-21.7-9.8-21.7-21.7c0-0.7,0.6-1.3,1.3-1.3h4.5c0.7,0,1.3,0.6,1.3,1.3
				c0,1.6,0.3,3,0.7,4.6c0.1,0.4,0,0.9-0.3,1.3L18.1,23.4L18.1,23.4z"/>
		</g>
	</g>
</g>
</svg>
