<?xml version="1.0" encoding="utf-8"?>
<!-- Generator: Adobe Illustrator 21.1.0, SVG Export Plug-In . SVG Version: 6.00 Build 0)  -->
<svg version="1.1" id="Layer_1" xmlns="http://www.w3.org/2000/svg" xmlns:xlink="http://www.w3.org/1999/xlink" x="0px" y="0px" width="50px" height="50px"
	 viewBox="0 0 50 50" style="enable-background:new 0 0 50 50;" xml:space="preserve">
<style type="text/css">
	.st0{fill:#FFFFFF;}
</style>
<g>
	<circle cx="25" cy="25" r="25"/>
</g>
<g id="Icons_with_numbers">
	<g id="Group" transform="translate(-336.000000, 0.000000)">
		<path id="Shape" class="st0" d="M364.1,25.9l8.8,7.6c-0.3,0.3-0.8,0.5-1.2,0.5h-21.4c-0.5,0-0.9-0.2-1.2-0.5l8.8-7.6l3.1,2.7
			L364.1,25.9z M361,26.8l-11.9-10.2c0.3-0.3,0.8-0.5,1.2-0.5h21.4c0.5,0,0.9,0.2,1.2,0.5L361,26.8z M373.5,32.5l-8.6-7.3l8.6-7.5
			V32.5L373.5,32.5z M348.5,32.5V17.6l8.6,7.5L348.5,32.5L348.5,32.5z"/>
	</g>
</g>
</svg>
