<?xml version="1.0" encoding="utf-8"?>
<!-- Generator: Adobe Illustrator 21.1.0, SVG Export Plug-In . SVG Version: 6.00 Build 0)  -->
<svg version="1.1" id="Layer_1" xmlns="http://www.w3.org/2000/svg" xmlns:xlink="http://www.w3.org/1999/xlink" x="0px" y="0px" width="145.1px" height="35px"
	 viewBox="0 0 145.1 35" style="enable-background:new 0 0 145.1 35;" xml:space="preserve">
<style type="text/css">
	.st0{fill:#231F20;}
	.st1{fill:#ED1C24;}
</style>
<g>
	<path class="st0" d="M51.6,7.8c3.6,1.9,5.9,5.7,5.9,9.9c0.1,4.2-2.2,8.1-5.9,10.1c-3.8,2-8.4,2-12.2,0c-1.8-1-3.3-2.4-4.3-4.2
		c-1-1.8-1.6-3.8-1.6-5.9c-0.1-4.2,2.2-8,5.9-9.9C43.2,5.8,47.8,5.8,51.6,7.8z M42.5,12.1c-1,0.6-1.7,1.4-2.2,2.3
		c-1.1,2.1-1.1,4.6,0,6.7c0.5,1,1.3,1.8,2.2,2.3c0.9,0.6,2,0.9,3,0.9s2.1-0.3,3-0.9s1.6-1.4,2.2-2.3c1-2.1,1-4.5,0-6.7
		c-0.5-1-1.2-1.8-2.2-2.3c-0.9-0.6-2-0.9-3-0.9S43.5,11.5,42.5,12.1z"/>
	<path class="st0" d="M64,4.7c0.6,0.6,0.9,1.4,0.9,2.2S64.6,8.4,64,9.1c-1.2,1.1-3,1.1-4.2,0c-0.5-0.6-0.9-1.4-0.9-2.2
		s0.3-1.6,0.9-2.2C60.9,3.6,62.8,3.6,64,4.7L64,4.7z M59.1,11.7h5.6v17.1h-5.6V11.7z"/>
	<path class="st0" d="M67.5,5.4h5.6v23.4h-5.6V5.4z"/>
	<path class="st0" d="M89.2,13.3c1.2,0.7,2.2,1.7,2.9,3c0.7,1.3,1,2.9,1,4.3s-0.3,3-1,4.3c-0.6,1.2-1.6,2.3-2.8,3
		c-1.2,0.7-2.7,1-4.1,1c-1.6,0-2.9-0.3-4-1c-1.1-0.7-2.1-1.6-2.7-2.9v10h-2.2V12.3h2.1v3.8c0.6-1.2,1.5-2.2,2.6-2.9
		c1.2-0.7,2.6-1,4-1C86.5,12.2,87.9,12.5,89.2,13.3z M87.8,26.2c1-0.5,1.7-1.4,2.2-2.3c1-2.1,1-4.6,0-6.8c-0.5-1-1.3-1.7-2.2-2.3
		c-2-1.1-4.4-1.1-6.4,0c-1,0.5-1.7,1.4-2.2,2.3c-0.5,1-0.9,2.2-0.8,3.4c0,1.2,0.3,2.3,0.8,3.4c0.5,1,1.3,1.7,2.2,2.3
		C83.4,27.4,85.9,27.4,87.8,26.2z"/>
	<path class="st0" d="M98,6.5c0.3,0.3,0.4,0.7,0.4,1c0,0.4-0.2,0.8-0.4,1c-0.3,0.3-0.6,0.4-1,0.4s-0.8-0.2-1-0.4
		c-0.3-0.3-0.4-0.7-0.4-1c0-0.8,0.6-1.5,1.4-1.5c0,0,0,0,0.1,0C97.4,6,97.7,6.2,98,6.5z M95.9,12.3H98v16.6h-2.1V12.3z"/>
	<path class="st0" d="M100.5,12.3h2.4l4.6,6.6l4.7-6.6h2.3l-5.6,8.1l6.1,8.5h-2.5l-4.9-7.1l-5.1,7.1H100l6.1-8.5L100.5,12.3z"/>
	<path class="st0" d="M129.1,14.7c1.4,1.6,2,3.8,1.9,6.6h-13.8c0.2,1.7,0.8,3.2,2,4.3c1.1,1.1,2.6,1.6,4.3,1.6c1,0,2-0.2,2.9-0.6
		c0.9-0.3,1.6-1,2.3-1.6l1.2,1.2c-0.8,0.9-1.8,1.6-2.9,2c-1.2,0.5-2.4,0.7-3.7,0.7c-1.5,0-2.9-0.3-4.2-1c-1.2-0.7-2.2-1.7-2.9-3
		c-0.7-1.3-1-2.9-1-4.3c0-1.5,0.3-3,1-4.3c0.7-1.2,1.6-2.3,2.9-3c1.3-0.7,2.8-1,4.2-1C125.8,12.2,127.8,13,129.1,14.7z M129.1,19.6
		c-0.1-1.7-0.7-3.1-1.7-4.2s-2.4-1.6-4.1-1.6s-3,0.5-4.2,1.6c-1.1,1-1.7,2.4-1.9,4.1L129.1,19.6L129.1,19.6z"/>
	<path class="st0" d="M133.9,5.4h2.1v23.4h-2.1V5.4z"/>
	<path class="st0" d="M142.5,27.1l-0.6-1h-0.1H141v1h-0.6v-3.3h1.4c0.3,0,0.7,0.1,1,0.3c0.3,0.2,0.3,0.5,0.3,0.9
		c0,0.3-0.1,0.4-0.2,0.7c-0.1,0.2-0.3,0.3-0.5,0.4l0.7,1.1L142.5,27.1z M141,25.6h0.8c0.2,0,0.3,0,0.5-0.2c0.2-0.1,0.2-0.3,0.2-0.4
		s-0.1-0.3-0.2-0.4c-0.2-0.1-0.3-0.2-0.5-0.2H141V25.6z"/>
	<path class="st0" d="M141.7,28.9c-1.9,0-3.4-1.6-3.5-3.4c-0.1-1.8,1.6-3.4,3.4-3.5c1.9,0,3.4,1.6,3.5,3.4l0,0
		C145.1,27.5,143.6,28.9,141.7,28.9z M141.7,22.7c-1.6,0-2.9,1.3-2.9,2.9s1.3,2.9,2.9,2.9c1.6,0,2.9-1.3,2.9-2.9l0,0
		C144.5,24,143.3,22.7,141.7,22.7L141.7,22.7z"/>
	<path class="st1" d="M25.4,22.5c0.6-2.8,0.3-5.8-1.6-7.9c1.3-2,1.1-4.2,0.3-6.3c-0.7-2-1.9-3.2-4-5.1c-1.3-1.2-3.8-3.7-4.8-3
		s-1.5,2.4-4,4c-3.5,2.2-6.1,4.2-8.4,7.6c-1.6,2.6-2.7,5.6-2.9,8.6c-0.4,5.4,2.9,11.8,8.4,12.8c6.4,1.1,10.7-0.7,13.8-4.3h-4.6v-6.3
		H24v6.3h6.4v-6.3C30.4,22.5,25.4,22.5,25.4,22.5z M7.6,12.8c-2.9,4.7-2.9,8.4-2.9,8.4c-1.4-4.1,0.1-7,1.9-9.2C9,9,13,7.2,13.2,7.2
		C11.5,8.4,8.9,10.7,7.6,12.8z"/>
</g>
</svg>
