<?xml version="1.0" encoding="utf-8"?>
<!-- Generator: Adobe Illustrator 24.1.2, SVG Export Plug-In . SVG Version: 6.00 Build 0)  -->
<svg version="1.1" id="Layer_1" xmlns="http://www.w3.org/2000/svg" xmlns:xlink="http://www.w3.org/1999/xlink" x="0px" y="0px"
	 viewBox="0 0 500 500" style="enable-background:new 0 0 500 500;" xml:space="preserve">
<style type="text/css">
	.st0{fill:#F6F1EB;}
</style>
<g>
	<g transform="translate(153.052951, 288.005635)">
	</g>
</g>
<g>
	<g transform="translate(188.572926, 288.005635)">
	</g>
</g>
<g>
	<g transform="translate(58.92955, 182.764143)">
		<g>
			<path class="st0" d="M146.7-106.2c-3-5-9.1-9.4-14.8-9.5c-5.7-0.4-4.8,2.5-6,6.3l-12.9,38.7l-7.2,22.6
				c-1.6,4.9-3.9,18.6-7.8,20.8c-2.8,1.4-8.1,1.2-11.2,1.8l-10.3,1.7c-6,1.3-11.3,3.8-17.4,4.4c1.5-3.6,2.5-7.3,3.5-11.1
				c1.6-4.9,1.1-9.5,2.9-14.4c2.9-8.3,5-16.7,8.3-24.8c1.8-4.7,3.4-9.7,5-14.4c1.5-3.8,1.5-7.9,2.6-11c1.3-2.9,3.8-5.6,4.7-8.4
				c1.3-5.4-4.3-8.7-8.9-9.9c-3.5-1-8.1-1.3-10.1,2.1c0.4-0.3-0.2,3-0.2,2.5c-0.5,1.6-1.3,3.3-2.1,4.8
				c-7.9,19.5-13.5,39.6-19.6,59.8c-1.7,6.1-3.6,12.2-5.3,18.5C39-22.9,38.1-19.8,37-17c-1.5,3.8-2.9,2.8-6.9,4.3
				c-1.8,0.6-5.3,1.7-6,3.8c-1.6,4.7,5.5,7.2,8.7,7.8c-3.6,17.7-8.3,35-11.3,52.9c-0.7,4.4-2.5,9.8-1.1,14.5
				c1.2,4.9,9.4,12.3,14.9,10.7c5.3-1.7,4.5-12.1,5.5-16.7c1.3-7.9,3-15.8,4.8-23.7c1.4-7,3.7-14,4.4-21.2l1-6.5
				c0.8-3.3,1.4-9,3.2-11.7c2.4-3.4,10.9-4.9,15.4-5.8c4.7-1.1,9.4-2.3,14.1-3.2c4.5-0.7,7.7-2.8,11.7-3.9
				c-4.4,13.2-7,27.1-11.2,40.3c-3,9.4-5.7,18.8-8,28.6c-1.7,7.9-4.1,16.4-5,24.4c-0.4,4.8,2,8.9,6.6,11.2
				c10.5,5.1,12.4-4.2,14.4-12.1c3.6-15,8.1-29.8,12.2-44.5c1.8-7.2,2.6-13.7,5.1-20.8l5.7-18.8c1.4-4.2,3.4-12.4,7-14.8
				c2.4-1.4,3.7-2,5.5-2.6c3.3-1.2,7.2-1.2,10.7-2.4c1.3-0.4,5.6-1.4,6-3.8c0.3-2.1-1.1-2.2-2.5-2.5c-0.7-0.2-1,1.2-1,1.2
				c-0.9,0.3-1.8-0.1-2.7,0.3c-4.5,0.9-10,0.5-14.5,0.9c1-6.7,4-12.9,6.6-19.6l8.8-22.5l4.4-10.9c1.1-3.1,1-5.8,1.7-8.4
				C146.6-97.1,150.2-100.2,146.7-106.2z M54.9-25.8c-2.6,8.2-5,16.5-7.2,24.7c2.4-10.5,4.6-20.5,7.5-31.1
				c2.9-10.5,8.3-20.4,11.9-30.6L54.9-25.8z M90.6,62.8c-0.5,1.4-1.1,2.6-1.4,4c0.2-2.5,0-5,0.6-7.6c0.4-2.8,2.7-5.3,3.8-7.9
				C92.8,55.3,92.2,59,90.6,62.8z M67.8-64.9l-0.3,1.2C67.4-64.2,67.6-64.4,67.8-64.9z"/>
		</g>
	</g>
</g>
<g>
	<g transform="translate(148.458477, 174.159559)">
		<g>
			<path class="st0" d="M130.7-6.1c0,0.2,0,0.2-0.2,0l0-0.2c-4.2-5.8-8.1,3.1-9.9,6.2c-3.3,5.6-6.5,10.9-10.1,16
				c-3,4.4-6.2,8.8-8.5,13.4c0,0.4-0.3,1.6-0.3,1.6c-0.8,1.4-2,2.7-3,4.2c-1.8,2.2-3.7,4.7-5.7,6.9c-3.1,3.5-20.4,23.2-24,11.9
				c-1.9-5.5-0.8-12.7-0.2-18.2c0.4-3,0.8-5.8,1-8.8c0.2-2.3-0.7-4.5,0.3-6.9c0.6-1.4,0.8-1.2,2.3-1.8l3.7-1.7
				c2.4-1.1,4.8-2.3,6.9-3.9c3.2-2.4,6.1-5.2,8.8-7.9c6.4-6.6,13.2-14.3,15.3-23.4c1.1-5.1,0.8-10.6-2.8-14.6
				c-3.3-3.6-8.5-5.1-13.1-5.6c-12.4-1.1-21,6.8-27.1,16.8C56.6-10.6,51.7,3.1,50.1,16.7c-1,6.7-1.2,13.4-1.7,20.2
				c-0.5,6.9-0.6,13.3,3.7,19.3C51.6,54,51,52,50.8,49.9c-0.1-1.1,0.2-2.3,0.1-3.2c0-0.5-0.6-1.8-0.7-2.4c-0.2-2,0.1-3.7,0.4-5.7
				c0-2.1-0.4-4.1-0.4-6.1c0-2.3,0.7-4.2,1.5-6.3c0.5-1.9,0.6-3.5,1.1-5.4c0.5-1.6,0.8-3.5,1.3-5.4c0.1-1.2,1.1-2.6,1.7-4
				c-0.5,2.1-1.7,4-1.9,5.9c-0.4,2.8,0.3,5.7,0.4,8.4c-0.2,3-0.8,6-0.9,9.2c-0.2,3-1.3,5.8-1.4,8.8c-0.2,2.8-0.9,4.9-0.4,7.6
				c0.2,1.6,0.5,3.1,0.9,4.5c0.4,1.8,1.6,2.8,2.9,4.1c4.3,4.2,9.8,7.3,15.9,8.3c4.2,0.7,7.8,0.2,11.4-2.2c5.1-3.5,9.5-8.4,13.1-13.1
				c3.4-4.7,5.9-9.7,8.9-14.5c2.8-4.4,6.3-8.6,9-13l10.7-17l6.1-9.9C131.2-3.2,131.8-4.4,130.7-6.1z M74.9,1.8
				C75.1,1.3,75,1.1,75,1.1c2.7-7.6,4.4-15.5,8.5-23l3.6-5.8c0.8-1.2,2.2-3.4,3.7-4c3.3-1,4.8,4.8,4.8,7.1l-0.4,4.8
				c-0.1,1.4,0.4,2.2,0.3,3.4c-0.3,1.4-1.4,2.2-2,3.4l-3.4,5.3c-4.6,6.6-10.7,12.4-17.5,17C73.5,6.7,74,4.1,74.9,1.8z"/>
		</g>
	</g>
</g>
<g>
	<g transform="translate(201.192367, 169.091329)">
		<g>
			<path class="st0" d="M193.7-10.3c-1.4-7.2-7.7,0.5-9.8,2.8C180.4-4,176.6-0.9,173,2.6c-10.3,9.4-19.8,19.2-29.4,29.1
				c3.1-12.6,8.3-25.4,14-37.2c1.1-2.4,2.1-4.5,1.4-7.2c-1.7-6-10.1-7.7-15.4-6.3c-4.7,1.4-4.9,3.7-5.5,6.9
				c-1.3,5.8-7.3,11.4-10.8,16.1c-1.4,2-10.8,15.9-11,15.9c0.7-0.1,1.1-0.6,1.5-0.8c-4.5,5.7-11.6,11.8-17.3,17.2
				c-2.3,2.3-8.8,10.2-12.8,9.2c-11.2-2.3,7-47.9,6.3-48.1c-0.7-0.2-6.2,18.4-7.4,22.6c2.6-11.4,6.3-22.7,10.2-33.6
				c-0.1,0.9-0.6,2.8-0.2,2.8c0.7,0.2,3.4-7.6,2.7-7.8c-0.2,0-0.4,0.3-0.7,0.3c0.6-1,1.7-1.5,2-2.9c0.4-3-3.3-5.8-5.9-6.5
				c-5.6-1.7-11.7,2-13.7,7.5c-0.6,1-1.1,2.6-1.5,3.1c-0.5,1.4-1.6,2-2.4,3.4c-2.1,4.5-3,9.6-4.3,14.3c-0.5,2.1-6.2,25.5-5.1,25.6
				l0.4-0.5c-0.3,1.6-0.3,3.5-0.4,5.1c-0.5-0.2,0.1-1.6-0.4-1.6c-2.3,0-1.8,14.5-1.4,16.1c0.9,4.5,4.4,9.8,8.9,11.7
				c2.1,0.9,4.9,1.1,7.3,0.4c0.9-0.1,5-2.3,3.4-2.2l1.3-0.6l-0.4,0.5c0.2,0.2,8-4.2,9.4-4.8c6.3-3.3,11.4-9.1,15.7-14.5l13.5-16.4
				c3.1-3.7,5.5-9.2,8.9-12.3c-1.4,6.5-2.9,13.1-4.1,19.6c-1.8,7.7-2.2,17.1-5.2,24.2c-2.4,5.7-9.4,11.4-13.3,16.1
				c-5.6,6.2-11.1,12.5-16.2,18.9c-7.1,9.1-13.2,19.3-19.3,29.2c-6.3,10.4-14.9,25.2-4.8,36.1c6.9,7.8,18.7,11.9,28.6,8.2
				c9.1-3.2,11.9-11.2,15.8-18.9c12.2-25.4,17.4-53.9,23.2-81.2c1-4,1.2-10.8,3.2-14.2c2-3.4,6.2-6.5,8.7-9.3
				c6.2-6.8,12.6-13.3,19.1-19.6L188-1.1C190.7-3.7,194.5-6.1,193.7-10.3z M107.7,116.3l0,0.2l-0.7,1.9l0,0.2
				c-0.2,0-0.2,0.3-0.2,0.3c0,0.2-0.2,0.7-0.2,0.7c-1.8,5.4-4,10.9-6.4,16.1c-2.1,4.3-4.9,11.2-9.5,13.2c-8.7,4-10.8-10.8-10-15.9
				c2.2-12.5,10.2-24,17-34.5c6.9-10.9,14.4-21,23.1-30.7C116.9,84,113,100.3,107.7,116.3z M120.5,111.9c0.6-2.8,1.9-5.9,3.3-8.8
				c-1,4.2-1.7,8.4-3.8,12.7l-1.7,3.8C119,117.1,119.6,114.3,120.5,111.9z M125.9,86.5l-3.1,10.3c0.3-2.1,0.5-4.4,1.3-5.8
				c0.7-2.1,2.2-5.9,1.5-8.4C125.8,83.8,126.2,85.4,125.9,86.5z M120.5,106.5l0.8-1.4C121.1,105.5,120.9,106,120.5,106.5z"/>
		</g>
	</g>
</g>
<g>
	<g transform="translate(287.669177, 160.780083)">
		<g>
			<path class="st0" d="M157.8-107.3l0-0.2c-2-9.4-16.5-10.3-22.5-4c-3.1,3.3-2.4,6.2-2,9.8c0.4,6.4-1,13.1-1.3,19.5
				c-2.2,25.1-5,50.2-8.5,75c-0.8,5.8-2.3,11.4-3.1,17.2c-0.5,4.4-3.5,16.3,0.5,19.6c6.2,5.3,9.6-13.9,10.6-17.4
				c5-19.4,7.6-39.3,12.2-58.7c2.7-11.9,5.2-23.8,8.5-35.5c1.7-6.1,3.6-12.2,5.1-18.3C157.5-102.7,157.8-104.8,157.8-107.3z M130,48
				c-0.2-1.6,1-3.8-0.5-5.4c-1.3-1.3-1.2-0.3-2.3-0.5c-4.7-1.4-8.9,0.2-12.8,2.6C109.5,48,102,58,105.8,64.5
				c1.1,1.7,5.5,4.9,7.1,5.5c4.5,1.8,6.5-1.3,9-4.1c2.9-3.2,5-4.6,6.3-8.4C128.6,56.6,133.2,47.7,130,48z M136.8-57.6l0,0.2
				c0.2,6.8-0.3,13.3-1,20.2c-0.5,6.2-3.6,12.2-4.7,18c0.6-3.7,1.4-6.3,1.5-10.6c0-4.6,0.9-9.4,2.1-14.1
				C135.6-48.3,136.3-53,136.8-57.6z M131-18.2c0-0.2,0-0.5,0.1-0.9C130.9-18.7,131-18.5,131-18.2z"/>
		</g>
	</g>
</g>
<g>
	<path class="st0" d="M145,356.1v20.2h-2.6v-20.2H145z"/>
	<path class="st0" d="M158.6,355.8c-0.7,2.5-2,5.7-2.8,7.1l-1.7,0.2c0.7-1.8,1.4-4.9,1.8-7L158.6,355.8z"/>
	<path class="st0" d="M184.4,367.4c-0.1-2.8-0.3-6.2-0.3-8.7H184c-0.7,2.4-1.5,4.9-2.5,7.7l-3.6,9.8h-2l-3.3-9.6
		c-1-2.8-1.8-5.5-2.3-7.9h-0.1c-0.1,2.5-0.2,5.9-0.4,8.9l-0.5,8.7h-2.5l1.4-20.2h3.3l3.5,9.8c0.8,2.5,1.5,4.7,2,6.8h0.1
		c0.5-2,1.2-4.3,2.1-6.8l3.6-9.8h3.3l1.3,20.2h-2.5L184.4,367.4z"/>
	<path class="st0" d="M222.2,356.1h2.6v9.7h0.1c0.5-0.8,1.1-1.5,1.6-2.2l6.2-7.6h3.2l-7.3,8.6l7.9,11.6h-3.1l-6.7-9.9l-1.9,2.2v7.7
		h-2.6V356.1z"/>
	<path class="st0" d="M248,369.9l-2.1,6.4h-2.7l6.9-20.2h3.1l6.9,20.2h-2.8l-2.2-6.4H248z M254.6,367.9l-2-5.8
		c-0.5-1.3-0.8-2.5-1.1-3.7h-0.1c-0.3,1.2-0.6,2.4-1,3.7l-2,5.8H254.6z"/>
	<path class="st0" d="M269.1,356.4c1.3-0.3,3.2-0.4,5-0.4c2.8,0,4.6,0.5,5.8,1.6c1,0.9,1.6,2.3,1.6,3.8c0,2.7-1.7,4.4-3.8,5.2v0.1
		c1.6,0.5,2.5,2,3,4.1c0.7,2.8,1.1,4.8,1.6,5.5h-2.7c-0.3-0.6-0.8-2.3-1.3-4.8c-0.6-2.8-1.7-3.8-4-3.9h-2.5v8.8h-2.6V356.4z
		 M271.7,365.6h2.7c2.8,0,4.6-1.5,4.6-3.8c0-2.6-1.9-3.8-4.6-3.8c-1.3,0-2.2,0.1-2.6,0.2V365.6z"/>
	<path class="st0" d="M295.3,358.3h-6.2v-2.2h15v2.2H298v18h-2.6V358.3z"/>
	<path class="st0" d="M315,356.1v8.5h9.8v-8.5h2.6v20.2h-2.6v-9.5H315v9.5h-2.6v-20.2H315z"/>
	<path class="st0" d="M340.6,356.1v20.2H338v-20.2H340.6z"/>
	<path class="st0" d="M351.1,356.1h2.6v9.7h0.1c0.5-0.8,1.1-1.5,1.6-2.2l6.2-7.6h3.2l-7.3,8.6l7.9,11.6h-3.1l-6.7-9.9l-1.9,2.2v7.7
		h-2.6V356.1z"/>
	<path class="st0" d="M180.9,401.6l-1.5,4.7h-2l5-14.8h2.3l5.1,14.8h-2l-1.6-4.7H180.9z M185.8,400.1l-1.5-4.3
		c-0.3-1-0.5-1.8-0.8-2.7h0c-0.2,0.9-0.5,1.8-0.7,2.7l-1.5,4.3H185.8z"/>
	<path class="st0" d="M224.9,405.8c-0.7,0.4-2.1,0.7-3.9,0.7c-4.2,0-7.3-2.6-7.3-7.5c0-4.6,3.1-7.8,7.7-7.8c1.8,0,3,0.4,3.5,0.7
		l-0.5,1.6c-0.7-0.4-1.8-0.6-3-0.6c-3.5,0-5.8,2.2-5.8,6.1c0,3.6,2.1,6,5.7,6c1.2,0,2.4-0.2,3.1-0.6L224.9,405.8z"/>
	<path class="st0" d="M231.4,404c0.9,0.5,2.1,1,3.4,1c2,0,3.1-1,3.1-2.5c0-1.4-0.8-2.2-2.8-2.9c-2.4-0.9-3.9-2.1-3.9-4.2
		c0-2.3,1.9-4,4.8-4c1.5,0,2.6,0.4,3.3,0.7l-0.5,1.6c-0.5-0.3-1.5-0.7-2.8-0.7c-2,0-2.8,1.2-2.8,2.2c0,1.4,0.9,2.1,2.9,2.9
		c2.5,1,3.8,2.2,3.8,4.4c0,2.3-1.7,4.3-5.2,4.3c-1.4,0-3-0.4-3.8-0.9L231.4,404z"/>
	<path class="st0" d="M265,406.3v-14.8h2.1l4.8,7.5c1.1,1.7,2,3.3,2.7,4.8l0,0c-0.2-2-0.2-3.8-0.2-6.1v-6.2h1.8v14.8h-1.9l-4.7-7.5
		c-1-1.7-2-3.3-2.8-5l-0.1,0c0.1,1.9,0.2,3.7,0.2,6.1v6.3H265z"/>
	<path class="st0" d="M291.6,399.3h-5.8v5.3h6.4v1.6h-8.3v-14.8h8v1.6h-6.1v4.7h5.8V399.3z"/>
	<path class="st0" d="M299.1,391.7c1-0.2,2.4-0.3,3.7-0.3c2,0,3.4,0.4,4.3,1.2c0.7,0.7,1.2,1.7,1.2,2.8c0,2-1.2,3.3-2.8,3.8v0.1
		c1.1,0.4,1.8,1.5,2.2,3c0.5,2.1,0.8,3.5,1.1,4.1h-2c-0.2-0.4-0.6-1.7-1-3.5c-0.4-2-1.2-2.8-3-2.9H301v6.4h-1.9V391.7z M301,398.4h2
		c2,0,3.3-1.1,3.3-2.8c0-1.9-1.4-2.8-3.4-2.8c-0.9,0-1.6,0.1-1.9,0.2V398.4z"/>
	<path class="st0" d="M315.4,391.7c1.2-0.2,2.6-0.3,4.1-0.3c2.8,0,4.7,0.6,6,1.8c1.3,1.2,2.1,2.9,2.1,5.3c0,2.4-0.7,4.4-2.1,5.8
		c-1.4,1.4-3.7,2.1-6.6,2.1c-1.4,0-2.5-0.1-3.5-0.2V391.7z M317.3,404.8c0.5,0.1,1.2,0.1,1.9,0.1c4.1,0,6.3-2.3,6.3-6.3
		c0-3.5-2-5.7-6-5.7c-1,0-1.7,0.1-2.2,0.2V404.8z"/>
</g>
</svg>
