<svg xmlns="http://www.w3.org/2000/svg" xmlns:xlink="http://www.w3.org/1999/xlink" width="500" zoomAndPan="magnify" viewBox="0 0 375 374.999991" height="500" preserveAspectRatio="xMidYMid meet" version="1.0"><defs><g/></defs><g fill="#f6f1eb" fill-opacity="1"><g transform="translate(127.162972, 288.005635)"><g><path d="M 15.121094 -10.351562 L 12.703125 -10.351562 L 11.011719 -1.753906 L 9.449219 -10.199219 L 6.105469 -10.199219 L 4.5 -1.828125 L 2.910156 -10.351562 L 0.390625 -10.351562 L 2.941406 0 L 6.074219 0 L 7.738281 -8.386719 L 9.300781 0 L 12.421875 0 Z M 15.121094 -10.351562 "/></g></g></g><g fill="#f6f1eb" fill-opacity="1"><g transform="translate(142.91296, 288.005635)"><g><path d="M 8.953125 -1.84375 L 3.628906 -1.84375 L 3.628906 -4.273438 L 8.460938 -4.273438 L 8.460938 -6.105469 L 3.628906 -6.105469 L 3.628906 -8.519531 L 8.804688 -8.519531 L 8.804688 -10.351562 L 1.273438 -10.351562 L 1.273438 0 L 8.953125 0 Z M 8.953125 -1.84375 "/></g></g></g><g fill="#f6f1eb" fill-opacity="1"><g transform="translate(153.052951, 288.005635)"><g/></g></g><g fill="#f6f1eb" fill-opacity="1"><g transform="translate(156.592951, 288.005635)"><g><path d="M 6.988281 -2.925781 L 7.933594 0 L 10.484375 0 L 6.796875 -10.351562 L 3.886719 -10.351562 L 0.148438 0 L 2.65625 0 L 3.613281 -2.925781 Z M 5.308594 -8.308594 L 6.40625 -4.769531 L 4.199219 -4.769531 Z M 5.308594 -8.308594 "/></g></g></g><g fill="#f6f1eb" fill-opacity="1"><g transform="translate(167.692942, 288.005635)"><g><path d="M 9.03125 -2.566406 C 8.910156 -3.765625 8.503906 -4.589844 7.453125 -4.980469 C 8.761719 -5.355469 9.511719 -6.210938 9.511719 -7.53125 C 9.511719 -9.34375 8.265625 -10.09375 6.765625 -10.273438 C 6.226562 -10.335938 5.820312 -10.351562 5.203125 -10.351562 L 1.273438 -10.351562 L 1.273438 0 L 3.628906 0 L 3.628906 -4.066406 L 4.558594 -4.066406 C 4.84375 -4.066406 5.101562 -4.066406 5.386719 -4.050781 C 6.164062 -3.988281 6.601562 -3.328125 6.734375 -2.203125 C 6.824219 -1.335938 6.976562 -0.71875 7.230469 0 L 9.796875 0 C 9.375 -0.601562 9.164062 -1.351562 9.03125 -2.566406 Z M 3.628906 -5.789062 L 3.628906 -8.519531 L 4.933594 -8.519531 C 5.265625 -8.519531 5.519531 -8.503906 5.730469 -8.488281 C 6.496094 -8.398438 7.050781 -8.101562 7.050781 -7.15625 C 7.050781 -6.210938 6.40625 -5.878906 5.640625 -5.804688 C 5.429688 -5.789062 5.175781 -5.789062 4.84375 -5.789062 Z M 3.628906 -5.789062 "/></g></g></g><g fill="#f6f1eb" fill-opacity="1"><g transform="translate(178.432935, 288.005635)"><g><path d="M 8.953125 -1.84375 L 3.628906 -1.84375 L 3.628906 -4.273438 L 8.460938 -4.273438 L 8.460938 -6.105469 L 3.628906 -6.105469 L 3.628906 -8.519531 L 8.804688 -8.519531 L 8.804688 -10.351562 L 1.273438 -10.351562 L 1.273438 0 L 8.953125 0 Z M 8.953125 -1.84375 "/></g></g></g><g fill="#f6f1eb" fill-opacity="1"><g transform="translate(188.572926, 288.005635)"><g/></g></g><g fill="#f6f1eb" fill-opacity="1"><g transform="translate(192.112927, 288.005635)"><g><path d="M 9.945312 -10.351562 L 7.605469 -10.351562 L 7.605469 -4.019531 C 7.605469 -3.734375 7.605469 -3.539062 7.574219 -3.328125 C 7.5 -2.203125 6.824219 -1.53125 5.535156 -1.53125 C 4.246094 -1.53125 3.570312 -2.203125 3.480469 -3.328125 C 3.464844 -3.539062 3.464844 -3.734375 3.464844 -4.019531 L 3.464844 -10.351562 L 1.125 -10.351562 L 1.125 -4.363281 C 1.125 -3.886719 1.125 -3.585938 1.15625 -3.046875 C 1.289062 -1.304688 2.503906 0.210938 5.535156 0.210938 C 8.566406 0.210938 9.78125 -1.304688 9.898438 -3.046875 C 9.945312 -3.585938 9.945312 -3.886719 9.945312 -4.363281 Z M 9.945312 -10.351562 "/></g></g></g><g fill="#f6f1eb" fill-opacity="1"><g transform="translate(203.49792, 288.005635)"><g><path d="M 10.726562 0 L 10.726562 -10.351562 L 8.386719 -10.351562 L 8.386719 -5.746094 C 8.386719 -4.980469 8.398438 -3.808594 8.460938 -2.730469 L 4.289062 -10.351562 L 1.273438 -10.351562 L 1.273438 0 L 3.628906 0 L 3.628906 -4.5 C 3.628906 -5.25 3.613281 -6.316406 3.539062 -7.410156 L 7.589844 0 Z M 10.726562 0 "/></g></g></g><g fill="#f6f1eb" fill-opacity="1"><g transform="translate(215.872908, 288.005635)"><g><path d="M 6.316406 -10.289062 C 5.789062 -10.351562 5.550781 -10.351562 4.996094 -10.351562 L 1.273438 -10.351562 L 1.273438 0 L 4.980469 0 C 5.535156 0 5.773438 0 6.300781 -0.0585938 C 8.699219 -0.34375 10.636719 -2.113281 10.636719 -5.308594 C 10.636719 -8.503906 8.714844 -10.019531 6.316406 -10.289062 Z M 5.730469 -1.875 C 5.386719 -1.84375 5.113281 -1.84375 4.679688 -1.84375 L 3.628906 -1.84375 L 3.628906 -8.519531 L 4.695312 -8.519531 C 5.128906 -8.519531 5.398438 -8.503906 5.746094 -8.476562 C 7.199219 -8.308594 8.160156 -7.230469 8.160156 -5.28125 C 8.160156 -3.285156 7.183594 -2.039062 5.730469 -1.875 Z M 5.730469 -1.875 "/></g></g></g><g fill="#f6f1eb" fill-opacity="1"><g transform="translate(227.707895, 288.005635)"><g><path d="M 8.953125 -1.84375 L 3.628906 -1.84375 L 3.628906 -4.273438 L 8.460938 -4.273438 L 8.460938 -6.105469 L 3.628906 -6.105469 L 3.628906 -8.519531 L 8.804688 -8.519531 L 8.804688 -10.351562 L 1.273438 -10.351562 L 1.273438 0 L 8.953125 0 Z M 8.953125 -1.84375 "/></g></g></g><g fill="#f6f1eb" fill-opacity="1"><g transform="translate(237.847886, 288.005635)"><g><path d="M 9.03125 -2.566406 C 8.910156 -3.765625 8.503906 -4.589844 7.453125 -4.980469 C 8.761719 -5.355469 9.511719 -6.210938 9.511719 -7.53125 C 9.511719 -9.34375 8.265625 -10.09375 6.765625 -10.273438 C 6.226562 -10.335938 5.820312 -10.351562 5.203125 -10.351562 L 1.273438 -10.351562 L 1.273438 0 L 3.628906 0 L 3.628906 -4.066406 L 4.558594 -4.066406 C 4.84375 -4.066406 5.101562 -4.066406 5.386719 -4.050781 C 6.164062 -3.988281 6.601562 -3.328125 6.734375 -2.203125 C 6.824219 -1.335938 6.976562 -0.71875 7.230469 0 L 9.796875 0 C 9.375 -0.601562 9.164062 -1.351562 9.03125 -2.566406 Z M 3.628906 -5.789062 L 3.628906 -8.519531 L 4.933594 -8.519531 C 5.265625 -8.519531 5.519531 -8.503906 5.730469 -8.488281 C 6.496094 -8.398438 7.050781 -8.101562 7.050781 -7.15625 C 7.050781 -6.210938 6.40625 -5.878906 5.640625 -5.804688 C 5.429688 -5.789062 5.175781 -5.789062 4.84375 -5.789062 Z M 3.628906 -5.789062 "/></g></g></g><g fill="#f6f1eb" fill-opacity="1"><g transform="translate(66.823136, 319.505633)"><g><path d="M 25.46875 -20.699219 L 18.269531 -20.699219 L 14.101562 -4.46875 L 9.929688 -20.699219 L 2.550781 -20.699219 L 2.550781 0 L 7.261719 0 L 7.261719 -9.179688 C 7.261719 -11.191406 7.261719 -13.890625 7.199219 -16.019531 C 7.589844 -13.890625 8.28125 -11.191406 8.851562 -9.210938 L 11.519531 0 L 16.5 0 L 19.109375 -9.210938 C 19.710938 -11.191406 20.398438 -13.921875 20.820312 -16.050781 C 20.761719 -13.921875 20.761719 -11.191406 20.761719 -9.179688 L 20.761719 0 L 25.46875 0 Z M 25.46875 -20.699219 "/></g></g></g><g fill="#f6f1eb" fill-opacity="1"><g transform="translate(95.593112, 319.505633)"><g><path d="M 13.980469 -5.851562 L 15.871094 0 L 20.96875 0 L 13.589844 -20.699219 L 7.769531 -20.699219 L 0.300781 0 L 5.308594 0 L 7.230469 -5.851562 Z M 10.621094 -16.621094 L 12.808594 -9.539062 L 8.398438 -9.539062 Z M 10.621094 -16.621094 "/></g></g></g><g fill="#f6f1eb" fill-opacity="1"><g transform="translate(117.793092, 319.505633)"><g><path d="M 7.261719 0 L 7.261719 -20.699219 L 2.550781 -20.699219 L 2.550781 0 Z M 7.261719 0 "/></g></g></g><g fill="#f6f1eb" fill-opacity="1"><g transform="translate(128.353081, 319.505633)"><g><path d="M 21.449219 0 L 21.449219 -20.699219 L 16.769531 -20.699219 L 16.769531 -11.488281 C 16.769531 -9.960938 16.800781 -7.621094 16.921875 -5.460938 L 8.578125 -20.699219 L 2.550781 -20.699219 L 2.550781 0 L 7.261719 0 L 7.261719 -9 C 7.261719 -10.5 7.230469 -12.628906 7.078125 -14.820312 L 15.179688 0 Z M 21.449219 0 "/></g></g></g><g fill="#f6f1eb" fill-opacity="1"><g transform="translate(153.103056, 319.505633)"><g><path d="M 19.050781 -17.039062 L 19.050781 -20.699219 L 0.570312 -20.699219 L 0.570312 -17.039062 L 7.46875 -17.039062 L 7.46875 0 L 12.148438 0 L 12.148438 -17.039062 Z M 19.050781 -17.039062 "/></g></g></g><g fill="#f6f1eb" fill-opacity="1"><g transform="translate(173.413033, 319.505633)"><g><path d="M 17.910156 -3.691406 L 7.261719 -3.691406 L 7.261719 -8.550781 L 16.921875 -8.550781 L 16.921875 -12.210938 L 7.261719 -12.210938 L 7.261719 -17.039062 L 17.609375 -17.039062 L 17.609375 -20.699219 L 2.550781 -20.699219 L 2.550781 0 L 17.910156 0 Z M 17.910156 -3.691406 "/></g></g></g><g fill="#f6f1eb" fill-opacity="1"><g transform="translate(193.693016, 319.505633)"><g><path d="M 21.449219 0 L 21.449219 -20.699219 L 16.769531 -20.699219 L 16.769531 -11.488281 C 16.769531 -9.960938 16.800781 -7.621094 16.921875 -5.460938 L 8.578125 -20.699219 L 2.550781 -20.699219 L 2.550781 0 L 7.261719 0 L 7.261719 -9 C 7.261719 -10.5 7.230469 -12.628906 7.078125 -14.820312 L 15.179688 0 Z M 21.449219 0 "/></g></g></g><g fill="#f6f1eb" fill-opacity="1"><g transform="translate(218.442991, 319.505633)"><g><path d="M 13.980469 -5.851562 L 15.871094 0 L 20.96875 0 L 13.589844 -20.699219 L 7.769531 -20.699219 L 0.300781 0 L 5.308594 0 L 7.230469 -5.851562 Z M 10.621094 -16.621094 L 12.808594 -9.539062 L 8.398438 -9.539062 Z M 10.621094 -16.621094 "/></g></g></g><g fill="#f6f1eb" fill-opacity="1"><g transform="translate(240.642971, 319.505633)"><g><path d="M 21.449219 0 L 21.449219 -20.699219 L 16.769531 -20.699219 L 16.769531 -11.488281 C 16.769531 -9.960938 16.800781 -7.621094 16.921875 -5.460938 L 8.578125 -20.699219 L 2.550781 -20.699219 L 2.550781 0 L 7.261719 0 L 7.261719 -9 C 7.261719 -10.5 7.230469 -12.628906 7.078125 -14.820312 L 15.179688 0 Z M 21.449219 0 "/></g></g></g><g fill="#f6f1eb" fill-opacity="1"><g transform="translate(265.392946, 319.505633)"><g><path d="M 11.699219 -21.121094 C 6 -21.121094 1.558594 -17.191406 1.558594 -10.230469 C 1.558594 -3.449219 5.761719 0.421875 11.429688 0.421875 C 16.679688 0.421875 20.25 -2.308594 20.730469 -6.988281 L 20.761719 -7.289062 L 16.050781 -7.289062 L 15.988281 -6.988281 C 15.511719 -4.53125 14.039062 -3.058594 11.609375 -3.058594 C 8.789062 -3.058594 6.511719 -5.308594 6.511719 -10.5 C 6.511719 -15.089844 8.640625 -17.640625 11.640625 -17.640625 C 14.128906 -17.640625 15.601562 -16.351562 16.078125 -13.949219 L 16.140625 -13.648438 L 20.851562 -13.648438 L 20.820312 -13.949219 C 20.398438 -18.03125 17.429688 -21.121094 11.699219 -21.121094 Z M 11.699219 -21.121094 "/></g></g></g><g fill="#f6f1eb" fill-opacity="1"><g transform="translate(288.642922, 319.505633)"><g><path d="M 17.910156 -3.691406 L 7.261719 -3.691406 L 7.261719 -8.550781 L 16.921875 -8.550781 L 16.921875 -12.210938 L 7.261719 -12.210938 L 7.261719 -17.039062 L 17.609375 -17.039062 L 17.609375 -20.699219 L 2.550781 -20.699219 L 2.550781 0 L 17.910156 0 Z M 17.910156 -3.691406 "/></g></g></g><g fill="#f6f1eb" fill-opacity="1"><g transform="translate(58.92955, 182.764143)"><g><path d="M 95.257812 -125.359375 C 93.015625 -129.078125 88.417969 -132.402344 84.128906 -132.503906 C 79.824219 -132.773438 80.546875 -130.621094 79.621094 -127.792969 L 69.914062 -98.792969 L 64.527344 -81.84375 C 63.34375 -78.136719 61.589844 -67.871094 58.667969 -66.222656 C 56.546875 -65.164062 52.597656 -65.296875 50.238281 -64.898438 L 42.488281 -63.640625 C 37.957031 -62.691406 34.035156 -60.773438 29.457031 -60.335938 C 30.566406 -63.007812 31.324219 -65.820312 32.082031 -68.628906 C 33.265625 -72.335938 32.941406 -75.730469 34.292969 -79.453125 C 36.4375 -85.648438 38.054688 -91.964844 40.550781 -98.023438 C 41.921875 -101.578125 43.105469 -105.285156 44.304688 -108.824219 C 45.402344 -111.667969 45.449219 -114.753906 46.253906 -117.054688 C 47.246094 -119.203125 49.101562 -121.265625 49.753906 -123.382812 C 50.734375 -127.414062 46.558594 -129.921875 43.050781 -130.78125 C 40.410156 -131.554688 36.96875 -131.738281 35.5 -129.199219 C 35.824219 -129.402344 35.375 -126.964844 35.34375 -127.300781 C 34.949219 -126.066406 34.382812 -124.8125 33.800781 -123.730469 C 27.847656 -109.125 23.652344 -94.003906 19.121094 -78.851562 C 17.847656 -74.277344 16.40625 -69.691406 15.148438 -64.949219 C 14.496094 -62.832031 13.863281 -60.546875 13.039062 -58.414062 C 11.945312 -55.570312 10.84375 -56.320312 7.875 -55.179688 C 6.550781 -54.710938 3.886719 -53.941406 3.355469 -52.347656 C 2.15625 -48.8125 7.46875 -46.925781 9.910156 -46.476562 C 7.246094 -33.214844 3.707031 -20.207031 1.398438 -6.808594 C 0.859375 -3.503906 -0.460938 0.558594 0.5625 4.054688 C 1.429688 7.734375 7.609375 13.300781 11.769531 12.046875 C 15.757812 10.808594 15.175781 2.992188 15.867188 -0.5 C 16.839844 -6.410156 18.152344 -12.355469 19.460938 -18.300781 C 20.5 -23.535156 22.214844 -28.832031 22.726562 -34.1875 L 23.457031 -39.050781 C 24.078125 -41.503906 24.519531 -45.824219 25.863281 -47.839844 C 27.671875 -50.40625 34.066406 -51.535156 37.425781 -52.199219 C 40.9375 -53.050781 44.449219 -53.902344 47.976562 -54.585938 C 51.355469 -55.078125 53.765625 -56.679688 56.769531 -57.484375 C 53.445312 -47.578125 51.539062 -37.128906 48.382812 -27.242188 C 46.152344 -20.179688 44.089844 -13.136719 42.398438 -5.785156 C 41.089844 0.160156 39.300781 6.492188 38.683594 12.539062 C 38.347656 16.167969 40.183594 19.242188 43.601562 20.96875 C 51.503906 24.828125 52.886719 17.851562 54.367188 11.890625 C 57.054688 0.675781 60.4375 -10.429688 63.480469 -21.503906 C 64.839844 -26.941406 65.402344 -31.785156 67.285156 -37.101562 L 71.578125 -51.203125 C 72.640625 -54.386719 74.105469 -60.519531 76.84375 -62.320312 C 78.625 -63.347656 79.609375 -63.785156 80.933594 -64.253906 C 83.414062 -65.175781 86.328125 -65.117188 88.976562 -66.054688 C 89.976562 -66.320312 93.152344 -67.140625 93.496094 -68.886719 C 93.6875 -70.445312 92.65625 -70.515625 91.605469 -70.757812 C 91.078125 -70.878906 90.839844 -69.828125 90.839844 -69.828125 C 90.175781 -69.59375 89.464844 -69.867188 88.804688 -69.632812 C 85.445312 -68.964844 81.308594 -69.253906 77.917969 -68.929688 C 78.632812 -73.960938 80.921875 -78.628906 82.839844 -83.605469 L 89.429688 -100.496094 L 92.75 -108.6875 C 93.558594 -110.992188 93.53125 -113.042969 94.03125 -114.972656 C 95.230469 -118.511719 97.917969 -120.824219 95.257812 -125.359375 Z M 26.441406 -65.007812 C 24.464844 -58.828125 22.664062 -52.664062 21.027344 -46.515625 C 22.839844 -54.394531 24.511719 -61.914062 26.660156 -69.820312 C 28.8125 -77.726562 32.890625 -85.136719 35.582031 -92.753906 Z M 53.1875 1.390625 C 52.777344 2.457031 52.347656 3.355469 52.109375 4.40625 C 52.265625 2.507812 52.089844 0.640625 52.585938 -1.289062 C 52.898438 -3.371094 54.601562 -5.246094 55.441406 -7.210938 C 54.871094 -4.246094 54.453125 -1.46875 53.1875 1.390625 Z M 36.113281 -94.347656 L 35.855469 -93.464844 C 35.824219 -93.804688 35.976562 -93.992188 36.113281 -94.347656 Z M 36.113281 -94.347656 "/></g></g></g><g fill="#f6f1eb" fill-opacity="1"><g transform="translate(148.458477, 174.159559)"><g><path d="M 60.921875 -48.125 C 60.9375 -47.957031 60.9375 -47.957031 60.75 -48.109375 L 60.734375 -48.28125 C 57.582031 -52.597656 54.625 -45.980469 53.308594 -43.628906 C 50.800781 -39.453125 48.445312 -35.460938 45.738281 -31.605469 C 43.488281 -28.308594 41.066406 -24.996094 39.34375 -21.578125 C 39.375 -21.242188 39.117188 -20.359375 39.117188 -20.359375 C 38.535156 -19.277344 37.601562 -18.332031 36.851562 -17.234375 C 35.472656 -15.558594 34.109375 -13.71875 32.558594 -12.027344 C 30.242188 -9.410156 17.285156 5.355469 14.589844 -3.113281 C 13.164062 -7.253906 14.015625 -12.640625 14.472656 -16.792969 C 14.769531 -19.046875 15.082031 -21.128906 15.210938 -23.367188 C 15.386719 -25.097656 14.714844 -26.742188 15.398438 -28.519531 C 15.8125 -29.585938 15.996094 -29.433594 17.152344 -29.886719 L 19.9375 -31.179688 C 21.734375 -32.039062 23.535156 -32.894531 25.132812 -34.078125 C 27.53125 -35.847656 29.726562 -37.941406 31.75 -40.019531 C 36.585938 -44.933594 41.675781 -50.726562 43.242188 -57.550781 C 44.070312 -61.398438 43.851562 -65.484375 41.167969 -68.476562 C 38.683594 -71.148438 34.808594 -72.316406 31.351562 -72.667969 C 22.03125 -73.484375 15.585938 -67.558594 10.996094 -60.101562 C 5.316406 -51.511719 1.683594 -41.234375 0.441406 -31.019531 C -0.273438 -25.988281 -0.476562 -21.003906 -0.835938 -15.835938 C -1.195312 -10.667969 -1.25 -5.871094 1.921875 -1.382812 C 1.589844 -3.0625 1.101562 -4.554688 0.957031 -6.082031 C 0.875 -6.929688 1.132812 -7.808594 1.066406 -8.488281 C 1.035156 -8.828125 0.597656 -9.8125 0.546875 -10.320312 C 0.402344 -11.847656 0.625 -13.066406 0.820312 -14.625 C 0.84375 -16.167969 0.527344 -17.679688 0.546875 -19.21875 C 0.554688 -20.933594 1.101562 -22.355469 1.636719 -23.945312 C 2.011719 -25.351562 2.070312 -26.554688 2.445312 -27.960938 C 2.839844 -29.195312 3.050781 -30.585938 3.429688 -31.992188 C 3.515625 -32.855469 4.265625 -33.953125 4.679688 -35.019531 C 4.316406 -33.445312 3.429688 -31.992188 3.21875 -30.601562 C 2.90625 -28.515625 3.457031 -26.34375 3.484375 -24.292969 C 3.355469 -22.058594 2.890625 -19.789062 2.777344 -17.382812 C 2.652344 -15.144531 1.828125 -13.011719 1.703125 -10.773438 C 1.558594 -8.707031 1.027344 -7.117188 1.394531 -5.097656 C 1.507812 -3.910156 1.789062 -2.738281 2.058594 -1.738281 C 2.359375 -0.398438 3.285156 0.367188 4.234375 1.304688 C 7.441406 4.417969 11.601562 6.757812 16.125 7.519531 C 19.257812 8.074219 21.957031 7.644531 24.691406 5.839844 C 28.550781 3.246094 31.785156 -0.488281 34.527344 -4.003906 C 37.101562 -7.503906 38.964844 -11.273438 41.179688 -14.910156 C 43.261719 -18.191406 45.867188 -21.351562 47.949219 -24.632812 L 55.964844 -37.382812 L 60.550781 -44.839844 C 61.300781 -45.9375 61.730469 -46.835938 60.921875 -48.125 Z M 19.046875 -42.21875 C 19.183594 -42.574219 19.167969 -42.746094 19.167969 -42.746094 C 21.1875 -48.414062 22.5 -54.359375 25.554688 -59.960938 L 28.21875 -64.324219 C 28.8125 -65.234375 29.855469 -66.875 31.007812 -67.328125 C 33.503906 -68.082031 34.605469 -63.738281 34.597656 -62.027344 L 34.261719 -58.398438 C 34.191406 -57.367188 34.59375 -56.71875 34.507812 -55.855469 C 34.265625 -54.804688 33.46875 -54.214844 33.039062 -53.320312 L 30.515625 -49.3125 C 27.054688 -44.359375 22.511719 -39.984375 17.363281 -36.582031 C 18.03125 -38.527344 18.359375 -40.441406 19.046875 -42.21875 Z M 19.046875 -42.21875 "/></g></g></g><g fill="#f6f1eb" fill-opacity="1"><g transform="translate(201.192367, 169.091329)"><g><path d="M 94.964844 -50.03125 C 93.9375 -55.40625 89.183594 -49.644531 87.636719 -47.957031 C 84.980469 -45.304688 82.125 -42.976562 79.46875 -40.324219 C 71.761719 -33.253906 64.597656 -25.890625 57.433594 -18.527344 C 59.777344 -27.992188 63.644531 -37.605469 67.933594 -46.40625 C 68.785156 -48.199219 69.488281 -49.804688 68.953125 -51.808594 C 67.664062 -56.304688 61.382812 -57.582031 57.375 -56.515625 C 53.882812 -55.492188 53.703125 -53.765625 53.253906 -51.324219 C 52.304688 -46.957031 47.746094 -42.753906 45.171875 -39.253906 C 44.117188 -37.785156 37.074219 -27.351562 36.90625 -27.335938 C 37.414062 -27.382812 37.722656 -27.757812 38.042969 -27.957031 C 34.6875 -23.699219 29.3125 -19.074219 25.078125 -15.074219 C 23.359375 -13.371094 18.453125 -7.421875 15.472656 -8.160156 C 7.089844 -9.921875 20.75 -44.09375 20.222656 -44.214844 C 19.699219 -44.335938 15.558594 -30.417969 14.664062 -27.25 C 16.582031 -35.820312 19.359375 -44.304688 22.339844 -52.460938 C 22.234375 -51.769531 21.859375 -50.363281 22.195312 -50.394531 C 22.722656 -50.273438 24.726562 -56.113281 24.203125 -56.234375 C 24.03125 -56.21875 23.878906 -56.03125 23.710938 -56.015625 C 24.152344 -56.742188 24.96875 -57.164062 25.210938 -58.214844 C 25.507812 -60.46875 22.734375 -62.597656 20.804688 -63.097656 C 16.570312 -64.402344 12.050781 -61.570312 10.5625 -57.492188 C 10.117188 -56.765625 9.722656 -55.527344 9.417969 -55.15625 C 9.007812 -54.089844 8.191406 -53.667969 7.609375 -52.585938 C 6.054688 -49.1875 5.394531 -45.355469 4.363281 -41.835938 C 4.003906 -40.261719 -0.300781 -22.734375 0.5625 -22.644531 L 0.867188 -23.015625 C 0.644531 -21.796875 0.605469 -20.421875 0.546875 -19.21875 C 0.191406 -19.355469 0.605469 -20.421875 0.265625 -20.390625 C -1.445312 -20.398438 -1.082031 -9.480469 -0.796875 -8.308594 C -0.132812 -4.949219 2.476562 -0.921875 5.863281 0.464844 C 7.472656 1.164062 9.539062 1.308594 11.371094 0.789062 C 12.050781 0.722656 15.140625 -0.941406 13.953125 -0.828125 L 14.9375 -1.265625 L 14.632812 -0.894531 C 14.816406 -0.738281 20.660156 -4.039062 21.648438 -4.476562 C 26.367188 -6.984375 30.234375 -11.292969 33.4375 -15.363281 L 43.550781 -27.632812 C 45.851562 -30.421875 47.679688 -34.53125 50.199219 -36.828125 C 49.128906 -31.933594 48.058594 -27.039062 47.160156 -22.160156 C 45.832031 -16.382812 45.480469 -9.335938 43.257812 -3.984375 C 41.445312 0.296875 36.207031 4.5625 33.292969 8.09375 C 29.125 12.773438 24.953125 17.453125 21.136719 22.269531 C 15.804688 29.113281 11.234375 36.742188 6.644531 44.199219 C 1.917969 52.011719 -4.546875 63.074219 3.082031 71.242188 C 8.261719 77.074219 17.117188 80.160156 24.550781 77.390625 C 31.339844 75.027344 33.5 69 36.371094 63.25 C 45.496094 44.230469 49.425781 22.804688 53.792969 2.359375 C 54.535156 -0.621094 54.722656 -5.773438 56.191406 -8.308594 C 57.660156 -10.847656 60.855469 -13.207031 62.710938 -15.269531 C 67.355469 -20.335938 72.191406 -25.25 77.039062 -29.996094 L 90.667969 -43.113281 C 92.710938 -45.019531 95.613281 -46.839844 94.964844 -50.03125 Z M 30.507812 44.988281 L 30.523438 45.15625 L 29.976562 46.578125 L 29.992188 46.746094 C 29.824219 46.765625 29.839844 46.933594 29.839844 46.933594 C 29.855469 47.101562 29.71875 47.457031 29.71875 47.457031 C 28.398438 51.523438 26.738281 55.617188 24.890625 59.558594 C 23.320312 62.792969 21.25 67.953125 17.800781 69.484375 C 11.246094 72.507812 9.664062 61.367188 10.320312 57.539062 C 11.984375 48.136719 18.003906 39.515625 23.066406 31.667969 C 28.269531 23.46875 33.875 15.910156 40.359375 8.613281 C 37.414062 20.707031 34.488281 32.96875 30.507812 44.988281 Z M 40.113281 41.667969 C 40.597656 39.566406 41.574219 37.25 42.566406 35.101562 C 41.839844 38.25 41.285156 41.382812 39.714844 44.617188 L 38.449219 47.476562 C 38.949219 45.546875 39.429688 43.445312 40.113281 41.667969 Z M 44.105469 22.628906 L 41.769531 30.382812 C 41.960938 28.824219 42.136719 27.097656 42.71875 26.015625 C 43.25 24.421875 44.34375 21.582031 43.828125 19.746094 C 44.078125 20.578125 44.363281 21.75 44.105469 22.628906 Z M 40.0625 37.566406 L 40.644531 36.484375 C 40.507812 36.839844 40.371094 37.195312 40.0625 37.566406 Z M 40.0625 37.566406 "/></g></g></g><g fill="#f6f1eb" fill-opacity="1"><g transform="translate(287.669177, 160.780083)"><g><path d="M 46.417969 -120.664062 L 46.402344 -120.835938 C 44.871094 -127.875 34.023438 -128.542969 29.515625 -123.832031 C 27.183594 -121.382812 27.734375 -119.210938 27.996094 -116.5 C 28.28125 -111.734375 27.226562 -106.671875 27.003906 -101.855469 C 25.390625 -83.046875 23.265625 -64.1875 20.601562 -45.621094 C 19.992188 -41.285156 18.855469 -37.066406 18.246094 -32.730469 C 17.878906 -29.441406 15.65625 -20.5 18.632812 -18.050781 C 23.292969 -14.046875 25.839844 -28.496094 26.613281 -31.136719 C 30.347656 -45.703125 32.339844 -60.609375 35.734375 -75.140625 C 37.785156 -84.066406 39.667969 -92.976562 42.074219 -101.765625 C 43.347656 -106.335938 44.789062 -110.925781 45.890625 -115.480469 C 46.238281 -117.226562 46.429688 -118.785156 46.417969 -120.664062 Z M 25.613281 -4.171875 C 25.5 -5.359375 26.367188 -6.984375 25.222656 -8.242188 C 24.277344 -9.179688 24.339844 -8.5 23.476562 -8.589844 C 19.953125 -9.617188 16.8125 -8.460938 13.910156 -6.640625 C 10.203125 -4.230469 4.597656 3.324219 7.460938 8.183594 C 8.269531 9.472656 11.582031 11.894531 12.820312 12.289062 C 16.203125 13.675781 17.6875 11.308594 19.542969 9.246094 C 21.703125 6.8125 23.320312 5.800781 24.246094 2.976562 C 24.519531 2.265625 27.984375 -4.402344 25.613281 -4.171875 Z M 30.664062 -83.382812 L 30.679688 -83.214844 C 30.828125 -78.09375 30.4375 -73.265625 29.910156 -68.078125 C 29.5 -63.417969 27.195312 -58.917969 26.417969 -54.566406 C 26.835938 -57.34375 27.503906 -59.289062 27.53125 -62.546875 C 27.546875 -65.96875 28.21875 -69.628906 29.082031 -73.132812 C 29.789062 -76.453125 30.3125 -79.925781 30.664062 -83.382812 Z M 26.3125 -53.871094 C 26.296875 -54.039062 26.28125 -54.210938 26.417969 -54.566406 C 26.28125 -54.210938 26.296875 -54.039062 26.3125 -53.871094 Z M 26.3125 -53.871094 "/></g></g></g></svg>